<?xml version="1.0" encoding="UTF-8" standalone="no"?>
<svg
   xmlns:dc="http://purl.org/dc/elements/1.1/"
   xmlns:cc="http://creativecommons.org/ns#"
   xmlns:rdf="http://www.w3.org/1999/02/22-rdf-syntax-ns#"
   xmlns:svg="http://www.w3.org/2000/svg"
   xmlns="http://www.w3.org/2000/svg"
   viewBox="0 0 906.66669 829.10132"
   height="829.10132"
   width="906.66669"
   xml:space="preserve"
   id="svg2"
   version="1.1"><metadata
     id="metadata8"><rdf:RDF><cc:Work
         rdf:about=""><dc:format>image/svg+xml</dc:format><dc:type
           rdf:resource="http://purl.org/dc/dcmitype/StillImage" /></cc:Work></rdf:RDF></metadata><defs
     id="defs6"><clipPath
       id="clipPath18"
       clipPathUnits="userSpaceOnUse"><path
         id="path16"
         d="M 0,621.826 H 680 V 0 H 0 Z" /></clipPath></defs><g
     transform="matrix(1.3333333,0,0,-1.3333333,0,829.10133)"
     id="g10"><g
       id="g12"><g
         clip-path="url(#clipPath18)"
         id="g14"><g
           transform="translate(267.5937,162.4354)"
           id="g20"><path
             id="path22"
             style="fill:#10b981;fill-opacity:1;fill-rule:nonzero;stroke:none"
             d="m 0,0 c -14.235,0.091 -25.548,4.884 -34.543,15.062 -4.414,4.992 -6.267,5.037 -10.95,0.284 -9.099,-9.236 -18.638,-18.055 -26.947,-28.044 -2.589,-3.112 -4.574,-3.176 -7.603,-0.133 -42.731,42.929 -85.536,85.785 -128.491,128.489 -3.981,3.958 -3.266,6.691 0.428,9.594 10.404,8.179 18.739,18.491 28.474,27.346 3.03,2.756 3,4.648 0.167,7.685 -8.439,9.049 -14.663,19.336 -15.001,32.182 -0.615,23.293 14.558,41.163 36.969,44.836 14.819,2.429 26.799,-3.046 37.786,-12.079 7,-5.756 6.934,-5.716 13.179,0.578 8.85,8.921 17.908,17.639 26.627,26.685 2.991,3.102 4.974,2.689 7.726,-0.113 5.479,-5.581 10.968,-11.199 16.912,-16.262 4.551,-3.876 3.626,-7.416 1.287,-11.872 -7.774,-14.807 -11.306,-30.368 -6.467,-46.87 7.696,-26.245 28.097,-41.287 53.447,-44.833 13.08,-1.829 26.126,2.275 37.47,9.658 3.466,2.256 5.677,1.716 8.123,-0.948 2.901,-3.162 5.925,-6.216 7.48,-10.365 0.926,-2.469 2.46,-4.001 5.209,-5.05 7.385,-2.818 8.503,-8.666 3.054,-14.038 C 45.298,102.882 36.305,93.922 27.102,85.183 24.118,82.349 23.999,80.262 26.93,77.376 36.197,68.252 42.048,57.322 41.974,44.116 41.867,24.922 27.696,5.273 9.658,1.406 6.255,0.677 2.869,-0.877 0,0" /></g><g
           transform="translate(352.54,353.5204)"
           id="g24"><path
             id="path26"
             style="fill:#10b981;fill-opacity:1;fill-rule:nonzero;stroke:none"
             d="m 0,0 c 0.892,-8.937 2.277,-17.798 7.187,-25.671 5.935,-9.515 5.815,-9.391 -2.19,-17.09 -4.653,-4.475 -9.024,-9.278 -13.201,-14.205 -3.586,-4.23 -6.452,-4.481 -10.443,-0.28 -8.784,9.245 -18.138,17.948 -26.912,27.202 -3.511,3.703 -5.863,3.738 -9.78,0.487 -8.28,-6.872 -16.971,-13.046 -28.291,-14.445 -6.702,-0.828 -13.139,0.274 -18.913,2.633 -15.204,6.212 -24.767,16.82 -27.539,34.165 -2.67,16.711 3.951,29.203 13.642,41.076 3.158,3.87 3.363,6.419 -0.518,9.717 -10.025,8.516 -19.088,18.066 -28.602,27.131 -3.055,2.912 -3.089,5.111 -0.487,7.766 6.176,6.304 12.374,12.591 18.731,18.709 2.655,2.556 5.664,2.808 9.11,0.748 15.826,-9.461 32.79,-11.133 50.284,-6.044 20.407,5.937 32.416,20.139 38.909,40.036 5.53,16.947 2.466,32.339 -6.45,47.046 -2.869,4.731 -2.963,8.354 1.643,12.231 6.281,5.289 12.138,11.097 17.98,16.88 2.741,2.713 4.644,2.509 7.28,-0.217 9.017,-9.32 18.376,-18.311 27.339,-27.682 3.447,-3.603 6.114,-4.66 10.251,-0.877 9.018,8.244 19.486,13.146 32.025,13.867 13.206,0.758 34.679,-7.508 39.692,-24.253 1.244,-4.157 3.241,-8.286 4.27,-12.496 2.831,-11.597 -1.476,-21.913 -7.25,-31.652 -1.975,-3.329 -4.519,-6.382 -7.14,-9.252 -2.82,-3.087 -2.016,-5.214 0.635,-7.951 8.994,-9.287 18.156,-18.376 27.913,-26.875 5.702,-4.966 5.733,-5.901 0.018,-10.805 C 112.267,63.954 107.232,56.128 99.508,50.896 97.425,49.485 97.048,49.339 95.013,50.522 79.021,59.823 61.745,61.592 43.895,58.093 22.022,53.806 3.971,30.451 1.257,9.328 0.858,6.23 -0.924,3.32 0,0" /></g><g
           transform="translate(325.4683,204.8866)"
           id="g28"><path
             id="path30"
             style="fill:#10b981;fill-opacity:1;fill-rule:nonzero;stroke:none"
             d="m 0,0 c -1.547,9.565 -1.973,20.163 -7.999,29.464 -4.691,7.242 -3.795,8.569 2.87,13.916 5.289,4.243 9.964,9.317 14.537,14.363 2.709,2.991 5.899,3.276 8.235,1.091 3.154,-2.95 6.704,-5.491 8.568,-10.095 2.101,-5.185 8.616,-6.66 12.467,-10.749 2.239,-2.379 5.09,-4.186 6.835,-7.103 3.186,-5.324 5.65,-5.647 9.933,-1.076 9.805,10.463 21.888,15.377 36.143,15.053 20.994,-0.478 37.443,-16.639 39.538,-37.594 1.632,-16.317 -3.942,-29.469 -15.319,-40.495 -3.401,-3.296 -2.773,-5.226 0.322,-8.055 9.833,-8.986 19.396,-18.267 29.234,-27.247 3.311,-3.024 2.318,-5.142 -0.331,-7.784 -17.666,-17.61 -35.145,-35.41 -52.906,-52.923 -20.41,-20.125 -40.208,-40.862 -61.018,-60.595 -4.916,-4.661 -9.787,-9.593 -14.224,-14.826 -2.106,-2.485 -3.714,-2.987 -6.479,-0.232 -31.505,31.396 -63.179,62.619 -94.775,93.923 -11.374,11.27 -22.621,22.667 -34.012,33.919 -2.652,2.619 -2.797,4.839 -0.11,7.467 6.041,5.91 12.009,11.896 17.957,17.9 2.434,2.457 4.823,2.812 7.826,0.828 25.595,-16.9 56.05,-9.863 75.507,8.684 C -5.7,-31.203 -1.444,-16.396 0,0" /></g><g
           transform="translate(414.3604,265.2645)"
           id="g32"><path
             id="path34"
             style="fill:#10b981;fill-opacity:1;fill-rule:nonzero;stroke:none"
             d="m 0,0 c -12.022,0.295 -23.445,-1.836 -33.667,-8.43 -3.504,-2.26 -5.921,-1.458 -8.616,1.368 -5.683,5.961 -11.397,11.931 -17.538,17.403 -3.817,3.4 -2.755,5.722 0.184,8.635 9.593,9.5 19.019,19.171 28.706,28.574 3.602,3.496 4.616,5.728 0.125,9.82 -14.901,13.58 -18.724,33.818 -8.931,51.348 11.989,21.461 33.961,29.28 56.888,20.181 5.265,-2.088 9.758,-6.466 14.143,-10.318 3.883,-3.413 6.727,-3.633 10.444,0.258 9.094,9.518 18.629,18.616 27.724,28.134 3.078,3.221 5.167,3.14 8.125,0.027 5.96,-6.27 12.12,-12.355 18.335,-18.375 2.376,-2.3 2.964,-3.584 0.821,-7.094 C 83.061,99.11 83.775,74.345 99.872,52.586 111.791,36.475 128.04,28.43 147.635,28.346 c 10.442,-0.044 21.039,2.167 30.473,7.532 4.124,2.346 7.496,2.26 10.954,-1.523 5.265,-5.756 10.848,-11.239 16.531,-16.588 2.727,-2.566 1.059,-3.907 -0.703,-5.668 -15.022,-15.015 -30.004,-30.068 -45.016,-45.092 -27.795,-27.819 -55.665,-55.566 -83.32,-83.524 -3.336,-3.373 -5.801,-3.342 -8.842,-0.363 -5.615,5.501 -11.142,11.093 -16.795,16.553 -2.914,2.814 -1.229,5.338 0.181,7.946 6.072,11.239 9.608,23.251 8.722,36.01 C 57.847,-27.928 41.94,-8.613 14.54,-1.314 9.769,-0.044 4.896,0.413 0,0" /></g><g
           transform="translate(480.0049,621.8202)"
           id="g36"><path
             id="path38"
             style="fill:#10b981;fill-opacity:1;fill-rule:nonzero;stroke:none"
             d="m 0,0 c 28.6,0.217 55.906,-5.684 81.878,-17.627 18.953,-8.717 36.159,-20.207 52.341,-33.331 3.579,-2.902 1.758,-4.884 -0.397,-6.973 -6.597,-6.398 -13.091,-12.924 -20.005,-18.965 -4.78,-4.176 -3.455,-7.732 0.063,-11.422 6.335,-6.645 11.372,-13.828 12.728,-23.301 2.389,-16.683 -2.691,-30.779 -15.067,-41.735 -12.81,-11.337 -28.381,-12.881 -43.529,-6.623 -6.881,2.843 -13.864,7.781 -18.972,14.153 -1.58,1.97 -2.308,3.285 -5.193,0.088 -10.588,-11.73 -21.97,-22.745 -33.077,-34.006 -1.385,-1.404 -2.589,-1.053 -3.976,0.35 -7.05,7.135 -14.143,14.231 -21.356,21.202 -2.527,2.441 -1.385,4.541 -0.051,6.813 6.844,11.655 10.058,24.166 8.944,37.712 -1.687,20.529 -11.136,35.735 -28.853,46.94 -15.938,10.079 -32.501,8.258 -49.359,6.067 -5.145,-0.669 -9.7,-4.161 -14.094,-7.095 -3.088,-2.062 -5.54,-1.643 -7.61,1.016 -5.217,6.704 -11.465,12.404 -17.66,18.119 -3.174,2.928 -3.084,5.049 0.25,7.333 23.043,15.788 47.082,29.181 74.724,35.699 C -32.275,-1.813 -16.315,0.002 0,0" /></g><g
           transform="translate(679.9629,426.1395)"
           id="g40"><path
             id="path42"
             style="fill:#10b981;fill-opacity:1;fill-rule:nonzero;stroke:none"
             d="m 0,0 c -0.364,-22.81 -2.292,-40.672 -7.472,-57.994 -7.527,-25.176 -18.703,-48.61 -34.604,-69.681 -2.375,-3.147 -4.02,-3.906 -7.091,-0.537 -8.579,9.409 -19.045,16.961 -26.904,27.114 -2.733,3.53 -5.341,3.516 -8.786,0.317 -7.762,-7.208 -16.219,-13.363 -27.295,-14.572 -24.261,-2.647 -47.122,12.575 -49.713,38.676 -1.451,14.615 3.85,26.796 14.269,36.951 4.98,4.854 4.666,5.203 -0.484,9.971 -9.625,8.911 -18.913,18.186 -28.473,27.17 -3.034,2.851 -3.571,4.911 -0.136,8.07 6.36,5.85 12.339,12.125 18.336,18.359 2.897,3.011 5.409,3.248 9.288,1.216 23.858,-12.504 47.286,-12.175 69.435,4.008 12.279,8.971 18.475,22.013 21.504,36.541 3.136,15.045 0.267,29.127 -8.152,42.01 -2.359,3.609 -2.607,6.512 1.308,9.441 3.74,2.797 7.035,6.199 10.446,9.419 2.532,2.392 4.354,2.273 6.74,-0.562 C -24.457,98.198 -9.522,66.414 -3.038,30.937 -0.909,19.292 0.266,7.252 0,0" /></g><g
           transform="translate(116.8291,562.994)"
           id="g44"><path
             id="path46"
             style="fill:#10b981;fill-opacity:1;fill-rule:nonzero;stroke:none"
             d="m 0,0 c -10.841,0.683 -21.542,-2.217 -30.633,-10.07 -1.943,-1.68 -3.801,-2.288 -5.406,0.127 -2.535,3.816 -6.325,6.312 -9.547,9.392 -2.541,2.428 -2.144,3.834 0.495,6.002 23.798,19.54 49.606,35.031 79.71,43.196 17.16,4.654 34.664,7.059 52.069,7.271 35.725,0.436 69.71,-7.754 100.891,-26.106 6.402,-3.769 12.735,-7.631 18.997,-11.611 5.566,-3.538 5.649,-4.712 1.05,-9.317 -9.489,-9.501 -18.941,-19.042 -28.605,-28.363 -3.095,-2.984 -2.537,-5.042 0.165,-7.796 9.083,-9.263 14.735,-20.182 15.167,-33.394 0.702,-21.519 -16.673,-40.878 -38.062,-43.486 -14.755,-1.799 -26.953,2.808 -37.426,12.644 -4.084,3.835 -7.318,5.136 -11.712,0.53 -6.084,-6.379 -12.858,-12.116 -18.751,-18.655 -2.887,-3.205 -5.934,-6.236 -8.907,-9.342 -2.677,-2.795 -5.144,-2.977 -8.178,0.199 -5.542,5.8 -11.445,11.278 -17.459,16.595 -3.15,2.785 -3.947,5.206 -1.593,8.99 7.285,11.714 9.233,24.734 8.841,38.29 C 60.51,-34.279 50.372,-19.254 33.344,-8.733 21.438,-1.376 14.357,0.05 0,0" /></g><g
           transform="translate(3.0547,420.9793)"
           id="g48"><path
             id="path50"
             style="fill:#10b981;fill-opacity:1;fill-rule:nonzero;stroke:none"
             d="m 0,0 c 0.634,41.208 12.39,82.591 39.993,118.794 3.085,4.046 6.272,8.016 9.519,11.933 2.119,2.557 4.084,2.967 6.674,0.029 5.655,-6.417 11.73,-12.463 17.547,-18.741 2.976,-3.212 5.483,-2.726 8.47,0.151 11.531,11.105 25.129,16.641 41.251,13.818 27.038,-4.734 40.004,-28.584 34.479,-53.814 -1.969,-8.987 -7.105,-15.514 -12.957,-21.835 -3.495,-3.775 -4.431,-6.205 0.409,-10.333 9.979,-8.511 19,-18.138 28.606,-27.101 3.801,-3.548 3.635,-6.152 -0.179,-9.615 -5.816,-5.281 -11.419,-10.84 -16.682,-16.669 -3.593,-3.98 -6.44,-4.699 -11.45,-1.796 C 120.617,-0.656 89.151,-4.426 70.083,-24.971 52.827,-43.563 47.9,-73.343 62.206,-95.538 c 3.381,-5.246 2.304,-8.454 -1.719,-12.089 -4.916,-4.443 -10.269,-8.417 -14.19,-13.931 -3.057,-4.296 -5.543,-1.952 -7.623,1.202 -8.51,12.904 -16.95,25.796 -22.839,40.247 C 5.835,-55.572 0.021,-28.726 0,0" /></g></g></g></g></svg>