<?xml version="1.0" encoding="utf-8"?>
<!-- Generator: Adobe Illustrator 23.0.0, SVG Export Plug-In . SVG Version: 6.00 Build 0)  -->
<svg version="1.1"
	 id="svg2" xmlns:inkscape="http://www.inkscape.org/namespaces/inkscape" xmlns:sodipodi="http://sodipodi.sourceforge.net/DTD/sodipodi-0.dtd" xmlns:svg="http://www.w3.org/2000/svg"
	 xmlns="http://www.w3.org/2000/svg" xmlns:xlink="http://www.w3.org/1999/xlink" x="0px" y="0px" viewBox="0 0 562.2 79.7"
	 style="enable-background:new 0 0 562.2 79.7;" xml:space="preserve">
<sodipodi:namedview  bordercolor="#666666" borderopacity="1.0" id="namedview4" inkscape:pagecheckerboard="0" inkscape:pageopacity="0.0" inkscape:pageshadow="2" pagecolor="#ffffff">
	</sodipodi:namedview>
<g>
	<path d="M60.8,77V2.7H113V19H81v12.8h28.9V48H81v29H60.8z"/>
	<path d="M150.8,2.7V77h-20.2V2.7H150.8z"/>
	<path d="M170.6,77V2.7h20.2v58h30V77H170.6z"/>
	<path d="M258.5,77h-21.8l24.5-74.3h27.6L313.3,77h-21.8l-16.3-53.8h-0.6L258.5,77z M254.4,47.7h40.9v15.1h-40.9V47.7z"/>
</g>
<g>
	<path d="M354.1,14h17.4l4.2,29.2h0.6L396.1,14h17.4l-13.8,51.6H386l8-29.8h-0.4l-19.4,29.4H366l-3.5-29.6H362l-8,30h-13.7L354.1,14
		z"/>
	<path d="M406.4,65.7L420.2,14h37.2l-3,11.3h-23.2l-2.4,8.9h21.3l-3,11.3h-21.3l-2.4,8.9h23.1l-3,11.3H406.4z"/>
	<path d="M470.4,65.7h-19.9L464.4,14H484c5.3,0,9.6,1,12.9,3.1c3.3,2.1,5.5,5,6.6,8.9c1.1,3.9,0.9,8.5-0.5,13.8
		c-1.4,5.4-3.7,10-6.9,13.8s-6.9,6.8-11.3,8.9C480.5,64.6,475.6,65.7,470.4,65.7z M467.7,53.8h5.3c2.6,0,4.8-0.4,6.9-1.2
		c2-0.8,3.8-2.2,5.3-4.3c1.5-2,2.7-4.8,3.7-8.4s1.2-6.4,0.8-8.4c-0.4-2-1.5-3.4-3.1-4.3c-1.6-0.8-3.8-1.2-6.5-1.2h-4.9L467.7,53.8z"
		/>
</g>
</svg>
