<?xml version="1.0" encoding="UTF-8" standalone="no"?>
<!-- Created with Inkscape (http://www.inkscape.org/) -->

<svg
   version="1.1"
   id="svg2"
   xml:space="preserve"
   width="562.20935"
   height="460.45999"
   viewBox="0 0 562.20935 460.45999"
   sodipodi:docname="logo-vertical-dark.ai"
   xmlns:inkscape="http://www.inkscape.org/namespaces/inkscape"
   xmlns:sodipodi="http://sodipodi.sourceforge.net/DTD/sodipodi-0.dtd"
   xmlns="http://www.w3.org/2000/svg"
   xmlns:svg="http://www.w3.org/2000/svg"><defs
     id="defs6"><clipPath
       clipPathUnits="userSpaceOnUse"
       id="clipPath16"><path
         d="M 0,345.345 H 421.657 V 0 H 0 Z"
         id="path14" /></clipPath><clipPath
       clipPathUnits="userSpaceOnUse"
       id="clipPath24"><path
         d="M 306.726,47.2487 H 421.657 V 11.5619 H 306.726 Z"
         id="path22" /></clipPath><clipPath
       clipPathUnits="userSpaceOnUse"
       id="clipPath88"><path
         d="M 0,345.345 H 421.657 V 0 H 0 Z"
         id="path86" /></clipPath><clipPath
       clipPathUnits="userSpaceOnUse"
       id="clipPath116"><path
         d="m 127.042,309.792 h 178.27 V 176.51 h -178.27 z"
         id="path114" /></clipPath><clipPath
       clipPathUnits="userSpaceOnUse"
       id="clipPath132"><path
         d="M 93.274,339.076 H 287.778 V 110.206 H 93.274 Z"
         id="path130" /></clipPath><clipPath
       clipPathUnits="userSpaceOnUse"
       id="clipPath148"><path
         d="M 152.854,266.002 H 325.766 V 111.555 H 152.854 Z"
         id="path146" /></clipPath><radialGradient
       fx="0"
       fy="0"
       cx="0"
       cy="0"
       r="1"
       gradientUnits="userSpaceOnUse"
       gradientTransform="matrix(115.02627,0,0,-115.02627,193.08978,223.86311)"
       spreadMethod="pad"
       id="radialGradient178"><stop
         style="stop-opacity:1;stop-color:#2563eb"
         offset="0"
         id="stop170" /><stop
         style="stop-opacity:1;stop-color:#2563eb"
         offset="0.00537634"
         id="stop172" /><stop
         style="stop-opacity:1;stop-color:#2563eb"
         offset="0.473118"
         id="stop174" /><stop
         style="stop-opacity:1;stop-color:#2563eb"
         offset="1"
         id="stop176" /></radialGradient><clipPath
       clipPathUnits="userSpaceOnUse"
       id="clipPath188"><path
         d="M 0,345.345 H 421.657 V 0 H 0 Z"
         id="path186" /></clipPath></defs><sodipodi:namedview
     id="namedview4"
     pagecolor="#ffffff"
     bordercolor="#666666"
     borderopacity="1.0"
     inkscape:pageshadow="2"
     inkscape:pageopacity="0.0"
     inkscape:pagecheckerboard="0" /><g
     id="g8"
     inkscape:groupmode="layer"
     inkscape:label="logo-vertical-dark"
     transform="matrix(1.3333333,0,0,-1.3333333,0,460.46)"><g
       id="g10"><g
         id="g12"
         clip-path="url(#clipPath16)"><g
           id="g18"><g
             id="g20" /><g
             id="g76"><g
               clip-path="url(#clipPath24)"
               id="g74"><g
                 transform="translate(316.8757,23.5509)"
                 id="g28"><path
                   d="m 0,0 c 1.344,0 2.535,0.308 3.572,0.923 1.036,0.615 1.898,1.501 2.584,2.656 0.687,1.155 1.173,2.538 1.456,4.148 0.278,1.572 0.285,2.96 0.024,4.162 -0.262,1.203 -0.796,2.145 -1.604,2.827 -0.808,0.681 -1.893,1.022 -3.257,1.022 -1.421,0 -2.666,-0.36 -3.734,-1.079 -1.069,-0.72 -1.945,-1.685 -2.628,-2.898 C -4.27,10.549 -4.741,9.204 -5.002,7.727 -5.269,6.212 -5.266,4.874 -4.991,3.714 -4.719,2.554 -4.168,1.646 -3.342,0.987 -2.516,0.329 -1.402,0 0,0 m -2.001,-11.989 c -1.619,0 -2.975,0.206 -4.066,0.618 -1.093,0.412 -1.966,0.952 -2.621,1.619 -0.653,0.668 -1.14,1.381 -1.462,2.138 l 3.002,1.875 c 0.232,-0.398 0.536,-0.855 0.908,-1.37 0.373,-0.517 0.93,-0.966 1.674,-1.35 0.741,-0.384 1.77,-0.575 3.087,-0.575 1.761,0 3.29,0.426 4.585,1.278 1.297,0.853 2.105,2.188 2.425,4.006 L 6.312,0.682 H 6.029 C 5.712,0.284 5.278,-0.206 4.726,-0.789 4.174,-1.371 3.438,-1.888 2.521,-2.337 1.604,-2.787 0.435,-3.012 -0.986,-3.012 c -1.761,0 -3.266,0.417 -4.517,1.25 -1.25,0.833 -2.14,2.046 -2.668,3.637 -0.529,1.591 -0.593,3.522 -0.192,5.795 0.394,2.235 1.13,4.184 2.209,5.846 1.08,1.662 2.4,2.949 3.963,3.863 1.562,0.914 3.262,1.371 5.099,1.371 1.421,0 2.508,-0.234 3.264,-0.703 C 6.928,17.578 7.478,17.048 7.823,16.456 8.169,15.864 8.431,15.378 8.611,15 h 0.341 l 0.611,3.466 h 3.238 L 8.844,-3.978 C 8.513,-5.853 7.82,-7.38 6.765,-8.559 5.709,-9.737 4.421,-10.604 2.896,-11.158 c -1.522,-0.554 -3.155,-0.831 -4.897,-0.831"
                   style="fill:#2563eb;fill-opacity:1;fill-rule:nonzero;stroke:none"
                   id="path26" /></g><g
                 transform="translate(334.2009,32.8683)"
                 id="g32"><path
                   d="M 0,0 C 0.238,1.011 0.657,1.971 1.266,2.87 1.971,3.92 2.873,4.78 3.957,5.431 5.044,6.09 6.252,6.42 7.592,6.42 8.802,6.42 9.803,6.141 10.604,5.58 11.395,5.021 11.951,4.261 12.271,3.301 12.591,2.33 12.637,1.23 12.42,0 Z m 15.568,-1.479 c 0.361,2.04 0.392,3.75 0.097,5.139 C 15.372,5.061 14.85,6.181 14.088,7.021 13.327,7.87 12.427,8.49 11.382,8.86 10.349,9.24 9.253,9.431 8.122,9.431 6.152,9.431 4.348,8.95 2.709,7.99 1.06,7.03 -0.317,5.69 -1.437,3.99 -2.559,2.28 -3.317,0.301 -3.711,-1.93 c -0.394,-2.24 -0.328,-4.19 0.195,-5.87 0.523,-1.689 1.463,-2.99 2.818,-3.929 1.355,-0.931 3.085,-1.391 5.184,-1.391 1.481,0 2.851,0.23 4.111,0.681 1.26,0.46 2.375,1.109 3.321,1.939 0.957,0.83 1.696,1.79 2.229,2.891 l -3.079,0.91 C 10.654,-7.46 10.144,-8.09 9.533,-8.6 8.924,-9.109 8.236,-9.489 7.473,-9.739 c -0.755,-0.25 -1.576,-0.37 -2.456,-0.37 -1.36,0 -2.489,0.29 -3.414,0.88 -0.915,0.599 -1.563,1.459 -1.932,2.599 -0.337,1.04 -0.399,2.28 -0.192,3.731 h 15.839 z"
                   style="fill:#2563eb;fill-opacity:1;fill-rule:nonzero;stroke:none"
                   id="path30" /></g><g
                 transform="translate(370.1765,37.1301)"
                 id="g36"><path
                   d="m 0,0 -3.161,-0.853 c -0.101,0.502 -0.292,0.993 -0.571,1.471 -0.282,0.478 -0.706,0.873 -1.276,1.186 -0.57,0.312 -1.344,0.468 -2.318,0.468 -1.336,0 -2.5,-0.304 -3.492,-0.916 -0.994,-0.61 -1.573,-1.384 -1.738,-2.322 -0.147,-0.833 0.039,-1.491 0.561,-1.974 0.52,-0.483 1.396,-0.886 2.628,-1.207 l 3.097,-0.796 c 1.869,-0.474 3.195,-1.196 3.979,-2.166 0.786,-0.971 1.045,-2.218 0.775,-3.744 -0.219,-1.25 -0.775,-2.367 -1.664,-3.351 -0.888,-0.985 -2.021,-1.762 -3.399,-2.33 -1.38,-0.569 -2.916,-0.852 -4.611,-0.852 -2.226,0 -3.983,0.483 -5.271,1.448 -1.287,0.966 -1.962,2.377 -2.022,4.234 l 3.321,0.795 c 0.096,-1.174 0.516,-2.055 1.26,-2.642 0.744,-0.588 1.802,-0.881 3.175,-0.881 1.563,0 2.866,0.334 3.906,1.001 1.042,0.668 1.644,1.471 1.809,2.409 0.134,0.757 -0.018,1.394 -0.458,1.91 -0.439,0.516 -1.185,0.902 -2.239,1.158 l -3.486,0.851 c -1.915,0.474 -3.25,1.21 -4.007,2.209 -0.757,0.999 -1.002,2.252 -0.736,3.758 0.216,1.231 0.756,2.32 1.62,3.267 0.863,0.947 1.945,1.69 3.248,2.23 1.302,0.539 2.721,0.81 4.256,0.81 2.158,0 3.772,-0.474 4.84,-1.421 C -0.904,2.803 -0.247,1.553 0,0"
                   style="fill:#2563eb;fill-opacity:1;fill-rule:nonzero;stroke:none"
                   id="path34" /></g><g
                 transform="translate(381.696,20.3088)"
                 id="g40"><path
                   d="m 0,0 c -0.244,-0.08 -0.57,-0.17 -0.996,-0.26 -0.426,-0.091 -0.943,-0.13 -1.573,-0.13 -0.951,0 -1.835,0.2 -2.672,0.61 -0.83,0.4 -1.471,1.02 -1.912,1.86 -0.445,0.83 -0.559,1.88 -0.335,3.149 l 2.405,13.641 h -3.29 l 0.501,2.84 h 3.29 l 0.922,5.229 h 3.349 L -1.232,21.71 h 4.66 L 2.927,18.87 h -4.66 L -3.978,6.14 C -4.146,5.189 -4.131,4.479 -3.932,4.02 -3.734,3.55 -3.431,3.229 -3.018,3.08 -2.605,2.92 -2.149,2.84 -1.66,2.84 c 0.37,0 0.676,0.03 0.923,0.07 0.247,0.04 0.444,0.08 0.588,0.1 z"
                   style="fill:#2563eb;fill-opacity:1;fill-rule:nonzero;stroke:none"
                   id="path38" /></g><g
                 transform="translate(394.7204,22.7551)"
                 id="g44"><path
                   d="m 0,0 c 1.496,0 2.795,0.384 3.896,1.15 1.101,0.768 1.994,1.777 2.678,3.027 0.685,1.25 1.155,2.603 1.413,4.062 0.257,1.458 0.264,2.817 0.023,4.076 -0.242,1.26 -0.778,2.278 -1.607,3.054 -0.829,0.777 -1.992,1.165 -3.488,1.165 -1.496,0 -2.796,-0.388 -3.898,-1.165 C -2.086,14.593 -2.98,13.575 -3.666,12.315 -4.353,11.056 -4.824,9.697 -5.081,8.239 -5.339,6.78 -5.345,5.427 -5.102,4.177 -4.858,2.927 -4.321,1.918 -3.49,1.15 -2.66,0.384 -1.496,0 0,0 m -0.531,-3.011 c -1.97,0 -3.613,0.469 -4.93,1.407 -1.316,0.937 -2.24,2.249 -2.771,3.934 -0.532,1.686 -0.598,3.655 -0.201,5.909 0.401,2.273 1.164,4.256 2.291,5.951 1.128,1.696 2.516,3.012 4.163,3.95 1.647,0.937 3.456,1.406 5.425,1.406 1.97,0 3.613,-0.469 4.93,-1.406 1.317,-0.938 2.239,-2.254 2.77,-3.95 0.53,-1.695 0.594,-3.678 0.194,-5.951 C 10.942,5.985 10.181,4.016 9.055,2.33 7.928,0.645 6.542,-0.667 4.895,-1.604 3.247,-2.542 1.438,-3.011 -0.531,-3.011"
                   style="fill:#2563eb;fill-opacity:1;fill-rule:nonzero;stroke:none"
                   id="path42" /></g><g
                 transform="translate(406.8503,20.1984)"
                 id="g48"><path
                   d="M 0,0 3.848,21.818 H 7.086 L 6.505,18.522 h 0.227 c 0.588,1.081 1.462,1.957 2.622,2.628 1.161,0.673 2.394,1.009 3.701,1.009 0.246,0 0.552,-0.005 0.922,-0.014 0.367,-0.009 0.643,-0.024 0.83,-0.042 l -0.601,-3.41 c -0.109,0.029 -0.359,0.074 -0.751,0.135 -0.392,0.062 -0.809,0.093 -1.255,0.093 -1.06,0 -2.044,-0.221 -2.951,-0.661 C 8.344,17.819 7.583,17.214 6.969,16.441 6.354,15.67 5.961,14.792 5.787,13.807 L 3.353,0 Z"
                   style="fill:#2563eb;fill-opacity:1;fill-rule:nonzero;stroke:none"
                   id="path46" /></g><g
                 transform="translate(316.8757,23.5509)"
                 id="g52"><path
                   d="m 0,0 c 1.344,0 2.535,0.308 3.572,0.923 1.036,0.615 1.898,1.501 2.584,2.656 0.687,1.155 1.173,2.538 1.456,4.148 0.278,1.572 0.285,2.96 0.024,4.162 -0.262,1.203 -0.796,2.145 -1.604,2.827 -0.808,0.681 -1.893,1.022 -3.257,1.022 -1.421,0 -2.666,-0.36 -3.734,-1.079 -1.069,-0.72 -1.945,-1.685 -2.628,-2.898 C -4.27,10.549 -4.741,9.204 -5.002,7.727 -5.269,6.212 -5.266,4.874 -4.991,3.714 -4.719,2.554 -4.168,1.646 -3.342,0.987 -2.516,0.329 -1.402,0 0,0 m -2.001,-11.989 c -1.619,0 -2.975,0.206 -4.066,0.618 -1.093,0.412 -1.966,0.952 -2.621,1.619 -0.653,0.668 -1.14,1.381 -1.462,2.138 l 3.002,1.875 c 0.232,-0.398 0.536,-0.855 0.908,-1.37 0.373,-0.517 0.93,-0.966 1.674,-1.35 0.741,-0.384 1.77,-0.575 3.087,-0.575 1.761,0 3.29,0.426 4.585,1.278 1.297,0.853 2.105,2.188 2.425,4.006 L 6.312,0.682 H 6.029 C 5.712,0.284 5.278,-0.206 4.726,-0.789 4.174,-1.371 3.438,-1.888 2.521,-2.337 1.604,-2.787 0.435,-3.012 -0.986,-3.012 c -1.761,0 -3.266,0.417 -4.517,1.25 -1.25,0.833 -2.14,2.046 -2.668,3.637 -0.529,1.591 -0.593,3.522 -0.192,5.795 0.394,2.235 1.13,4.184 2.209,5.846 1.08,1.662 2.4,2.949 3.963,3.863 1.562,0.914 3.262,1.371 5.099,1.371 1.421,0 2.508,-0.234 3.264,-0.703 C 6.928,17.578 7.478,17.048 7.823,16.456 8.169,15.864 8.431,15.378 8.611,15 h 0.341 l 0.611,3.466 h 3.238 L 8.844,-3.978 C 8.513,-5.853 7.82,-7.38 6.765,-8.559 5.709,-9.737 4.421,-10.604 2.896,-11.158 c -1.522,-0.554 -3.155,-0.831 -4.897,-0.831"
                   style="fill:#2563eb;fill-opacity:1;fill-rule:nonzero;stroke:none"
                   id="path50" /></g><g
                 transform="translate(334.2009,32.8683)"
                 id="g56"><path
                   d="M 0,0 C 0.238,1.011 0.657,1.971 1.266,2.87 1.971,3.92 2.873,4.78 3.957,5.431 5.044,6.09 6.252,6.42 7.592,6.42 8.802,6.42 9.803,6.141 10.604,5.58 11.395,5.021 11.951,4.261 12.271,3.301 12.591,2.33 12.637,1.23 12.42,0 Z m 15.568,-1.479 c 0.361,2.04 0.392,3.75 0.097,5.139 C 15.372,5.061 14.85,6.181 14.088,7.021 13.327,7.87 12.427,8.49 11.382,8.86 10.349,9.24 9.253,9.431 8.122,9.431 6.152,9.431 4.348,8.95 2.709,7.99 1.06,7.03 -0.317,5.69 -1.437,3.99 -2.559,2.28 -3.317,0.301 -3.711,-1.93 c -0.394,-2.24 -0.328,-4.19 0.195,-5.87 0.523,-1.689 1.463,-2.99 2.818,-3.929 1.355,-0.931 3.085,-1.391 5.184,-1.391 1.481,0 2.851,0.23 4.111,0.681 1.26,0.46 2.375,1.109 3.321,1.939 0.957,0.83 1.696,1.79 2.229,2.891 l -3.079,0.91 C 10.654,-7.46 10.144,-8.09 9.533,-8.6 8.924,-9.109 8.236,-9.489 7.473,-9.739 c -0.755,-0.25 -1.576,-0.37 -2.456,-0.37 -1.36,0 -2.489,0.29 -3.414,0.88 -0.915,0.599 -1.563,1.459 -1.932,2.599 -0.337,1.04 -0.399,2.28 -0.192,3.731 h 15.839 z"
                   style="fill:#2563eb;fill-opacity:1;fill-rule:nonzero;stroke:none"
                   id="path54" /></g><g
                 transform="translate(370.1765,37.1301)"
                 id="g60"><path
                   d="m 0,0 -3.161,-0.853 c -0.101,0.502 -0.292,0.993 -0.571,1.471 -0.282,0.478 -0.706,0.873 -1.276,1.186 -0.57,0.312 -1.344,0.468 -2.318,0.468 -1.336,0 -2.5,-0.304 -3.492,-0.916 -0.994,-0.61 -1.573,-1.384 -1.738,-2.322 -0.147,-0.833 0.039,-1.491 0.561,-1.974 0.52,-0.483 1.396,-0.886 2.628,-1.207 l 3.097,-0.796 c 1.869,-0.474 3.195,-1.196 3.979,-2.166 0.786,-0.971 1.045,-2.218 0.775,-3.744 -0.219,-1.25 -0.775,-2.367 -1.664,-3.351 -0.888,-0.985 -2.021,-1.762 -3.399,-2.33 -1.38,-0.569 -2.916,-0.852 -4.611,-0.852 -2.226,0 -3.983,0.483 -5.271,1.448 -1.287,0.966 -1.962,2.377 -2.022,4.234 l 3.321,0.795 c 0.096,-1.174 0.516,-2.055 1.26,-2.642 0.744,-0.588 1.802,-0.881 3.175,-0.881 1.563,0 2.866,0.334 3.906,1.001 1.042,0.668 1.644,1.471 1.809,2.409 0.134,0.757 -0.018,1.394 -0.458,1.91 -0.439,0.516 -1.185,0.902 -2.239,1.158 l -3.486,0.851 c -1.915,0.474 -3.25,1.21 -4.007,2.209 -0.757,0.999 -1.002,2.252 -0.736,3.758 0.216,1.231 0.756,2.32 1.62,3.267 0.863,0.947 1.945,1.69 3.248,2.23 1.302,0.539 2.721,0.81 4.256,0.81 2.158,0 3.772,-0.474 4.84,-1.421 C -0.904,2.803 -0.247,1.553 0,0"
                   style="fill:#2563eb;fill-opacity:1;fill-rule:nonzero;stroke:none"
                   id="path58" /></g><g
                 transform="translate(381.696,20.3088)"
                 id="g64"><path
                   d="m 0,0 c -0.244,-0.08 -0.57,-0.17 -0.996,-0.26 -0.426,-0.091 -0.943,-0.13 -1.573,-0.13 -0.951,0 -1.835,0.2 -2.672,0.61 -0.83,0.4 -1.471,1.02 -1.912,1.86 -0.445,0.83 -0.559,1.88 -0.335,3.149 l 2.405,13.641 h -3.29 l 0.501,2.84 h 3.29 l 0.922,5.229 h 3.349 L -1.232,21.71 h 4.66 L 2.927,18.87 h -4.66 L -3.978,6.14 C -4.146,5.189 -4.131,4.479 -3.932,4.02 -3.734,3.55 -3.431,3.229 -3.018,3.08 -2.605,2.92 -2.149,2.84 -1.66,2.84 c 0.37,0 0.676,0.03 0.923,0.07 0.247,0.04 0.444,0.08 0.588,0.1 z"
                   style="fill:#2563eb;fill-opacity:1;fill-rule:nonzero;stroke:none"
                   id="path62" /></g><g
                 transform="translate(394.7204,22.7551)"
                 id="g68"><path
                   d="m 0,0 c 1.496,0 2.795,0.384 3.896,1.15 1.101,0.768 1.994,1.777 2.678,3.027 0.685,1.25 1.155,2.603 1.413,4.062 0.257,1.458 0.264,2.817 0.023,4.076 -0.242,1.26 -0.778,2.278 -1.607,3.054 -0.829,0.777 -1.992,1.165 -3.488,1.165 -1.496,0 -2.796,-0.388 -3.898,-1.165 C -2.086,14.593 -2.98,13.575 -3.666,12.315 -4.353,11.056 -4.824,9.697 -5.081,8.239 -5.339,6.78 -5.345,5.427 -5.102,4.177 -4.858,2.927 -4.321,1.918 -3.49,1.15 -2.66,0.384 -1.496,0 0,0 m -0.531,-3.011 c -1.97,0 -3.613,0.469 -4.93,1.407 -1.316,0.937 -2.24,2.249 -2.771,3.934 -0.532,1.686 -0.598,3.655 -0.201,5.909 0.401,2.273 1.164,4.256 2.291,5.951 1.128,1.696 2.516,3.012 4.163,3.95 1.647,0.937 3.456,1.406 5.425,1.406 1.97,0 3.613,-0.469 4.93,-1.406 1.317,-0.938 2.239,-2.254 2.77,-3.95 0.53,-1.695 0.594,-3.678 0.194,-5.951 C 10.942,5.985 10.181,4.016 9.055,2.33 7.928,0.645 6.542,-0.667 4.895,-1.604 3.247,-2.542 1.438,-3.011 -0.531,-3.011"
                   style="fill:#2563eb;fill-opacity:1;fill-rule:nonzero;stroke:none"
                   id="path66" /></g><g
                 transform="translate(406.8503,20.1984)"
                 id="g72"><path
                   d="M 0,0 3.848,21.818 H 7.086 L 6.505,18.522 h 0.227 c 0.588,1.081 1.462,1.957 2.622,2.628 1.161,0.673 2.394,1.009 3.701,1.009 0.246,0 0.552,-0.005 0.922,-0.014 0.367,-0.009 0.643,-0.024 0.83,-0.042 l -0.601,-3.41 c -0.109,0.029 -0.359,0.074 -0.751,0.135 -0.392,0.062 -0.809,0.093 -1.255,0.093 -1.06,0 -2.044,-0.221 -2.951,-0.661 C 8.344,17.819 7.583,17.214 6.969,16.441 6.354,15.67 5.961,14.792 5.787,13.807 L 3.353,0 Z"
                   style="fill:#2563eb;fill-opacity:1;fill-rule:nonzero;stroke:none"
                   id="path70" /></g></g></g></g></g></g><g
       id="g78"
       transform="translate(2.5326,58.4055)"><path
         d="M 0,0 H -2.533 V -58.001 H 13.468 V -35 h 23 v 12.999 h -23 V -12 h 25 V 0 Z"
         style="fill:#111827;fill-opacity:1;fill-rule:nonzero;stroke:none"
         id="path80" /></g><g
       id="g82"><g
         id="g84"
         clip-path="url(#clipPath88)"><g
           id="g90"
           transform="translate(85.7824,29.8869)"><path
             d="m 0,0 c 0,3.484 -0.459,6.425 -1.378,8.821 -0.919,2.396 -2.273,4.214 -4.062,5.454 -1.79,1.241 -3.992,1.862 -6.605,1.862 -2.614,0 -4.816,-0.621 -6.606,-1.862 -1.789,-1.24 -3.144,-3.058 -4.062,-5.454 -0.919,-2.396 -1.378,-5.337 -1.378,-8.821 0,-3.485 0.459,-6.425 1.378,-8.821 0.918,-2.396 2.273,-4.214 4.062,-5.454 1.79,-1.242 3.992,-1.862 6.606,-1.862 2.613,0 4.815,0.62 6.605,1.862 1.789,1.24 3.143,3.058 4.062,5.454 C -0.459,-6.425 0,-3.485 0,0 m 16.25,0 c 0,-6.478 -1.26,-11.937 -3.778,-16.378 -2.52,-4.441 -5.919,-7.803 -10.2,-10.085 -4.28,-2.282 -9.053,-3.424 -14.317,-3.424 -5.304,0 -10.091,1.152 -14.361,3.452 -4.272,2.301 -7.661,5.672 -10.171,10.114 -2.509,4.441 -3.764,9.882 -3.764,16.321 0,6.478 1.255,11.937 3.764,16.378 2.51,4.441 5.899,7.803 10.171,10.085 4.27,2.282 9.057,3.424 14.361,3.424 5.264,0 10.037,-1.142 14.317,-3.424 4.281,-2.282 7.68,-5.644 10.2,-10.085 C 14.99,11.937 16.25,6.478 16.25,0"
             style="fill:#111827;fill-opacity:1;fill-rule:nonzero;stroke:none"
             id="path92" /></g><g
           id="g94"
           transform="translate(125.0002,46.4054)"><path
             d="m 0,0 h 5.534 c 1.839,0 3.418,-0.249 4.73,-0.745 1.301,-0.507 2.315,-1.273 3.02,-2.316 0.706,-1.043 1.053,-2.394 1.053,-4.053 0,-1.64 -0.347,-2.961 -1.053,-3.985 -0.705,-1.013 -1.719,-1.749 -3.02,-2.215 C 8.952,-13.771 7.373,-14 5.534,-14 H 0 Z m 20.706,-24.367 c 3.01,1.426 5.373,3.489 7.098,6.15 1.834,2.852 2.761,6.351 2.761,10.508 0,4.117 -0.897,7.647 -2.691,10.587 C 26.079,5.829 23.567,8.082 20.337,9.647 17.107,11.223 13.349,12 9.042,12 H -16 V -46 H 0 v 19 h 5.539 l 10.339,-19 h 16.611 z"
             style="fill:#111827;fill-opacity:1;fill-rule:nonzero;stroke:none"
             id="path96" /></g><g
           id="g98"
           transform="translate(165.0002,58.4054)"><path
             d="m 0,0 h 19.933 l 13.13,-32 h 0.663 L 46.857,0 H 67 V -58 H 52 v 34 H 51.548 L 38.665,-57 H 28.245 L 15.448,-24 H 15 V -58 H 0 Z"
             style="fill:#111827;fill-opacity:1;fill-rule:nonzero;stroke:none"
             id="path100" /></g><g
           id="g102"
           transform="translate(263.0456,23.4054)"><path
             d="M 0,0 5.737,19 H 6.182 L 11.919,0 Z M 16.721,35 H -4.802 l -19.151,-58 h 17.12 l 3.318,11 h 18.949 l 3.318,-11 h 17.109 z"
             style="fill:#111827;fill-opacity:1;fill-rule:nonzero;stroke:none"
             id="path104" /></g><g
           id="g106"
           transform="translate(317.5866,217.53)"><path
             d="m 0,0 c 0,-59.849 -48.514,-108.363 -108.364,-108.363 -59.847,0 -108.369,48.514 -108.369,108.363 0,59.844 48.522,108.362 108.369,108.362 C -48.514,108.362 0,59.844 0,0"
             style="fill:#f3f4f6;fill-opacity:1;fill-rule:nonzero;stroke:none"
             id="path108" /></g><g
           id="g110"><g
             id="g112" /><g
             id="g124"><g
               clip-path="url(#clipPath116)"
               id="g122"><g
                 transform="translate(305.3122,243.1525)"
                 id="g120"><path
                   d="m 0,0 c 0,-36.805 -39.907,-66.643 -89.136,-66.643 -49.224,0 -89.134,29.838 -89.134,66.643 0,36.801 39.91,66.64 89.134,66.64 C -39.907,66.64 0,36.801 0,0"
                   style="fill:#ffffff;fill-opacity:1;fill-rule:nonzero;stroke:none"
                   id="path118" /></g></g></g></g><g
           id="g126"><g
             id="g128" /><g
             id="g140"><g
               clip-path="url(#clipPath132)"
               opacity="0.300003"
               id="g138"><g
                 transform="translate(131.7995,271.2458)"
                 id="g136"><path
                   d="m 0,0 c 30.441,30.126 112.374,25.324 152.027,17.371 l 3.952,3.505 C 132.485,44.294 109.989,68.926 76.25,67.792 29.971,66.307 -13.571,39.13 -31.499,-3.249 -61.614,-74.378 11.583,-160.053 64.648,-161.04 17.903,-135.947 -40.497,-40.082 0,0"
                   style="fill:#6b7280;fill-opacity:1;fill-rule:nonzero;stroke:none"
                   id="path134" /></g></g></g></g><g
           id="g142"><g
             id="g144" /><g
             id="g156"><g
               clip-path="url(#clipPath148)"
               opacity="0.300003"
               id="g154"><g
                 transform="translate(316.5515,238.5461)"
                 id="g152"><path
                   d="m 0,0 c -15.749,15.413 -61.023,26.312 -99.236,27.333 -20.57,0.598 -56.374,-0.084 -63.69,-24.097 -1.192,-4.023 -1.093,-8.212 0.929,-12.022 -0.021,0.035 -0.048,0.064 -0.068,0.102 3.874,-7.579 5.25,-12.52 14.718,-14.816 25.131,-6.303 71.176,18.646 94.334,1.701 12.346,-8.987 9.46,-28.068 -3.797,-31.018 -7.34,-1.638 -21.391,1.398 -28.74,3.051 -33.876,7.623 -63.021,5.177 -56.425,-24.865 4.574,-20.815 24.234,-42.2 43.944,-49.433 15.064,-5.622 24.873,-2.471 39.076,3.744 40.279,17.796 67.043,56.371 68.163,99.629 C 9.379,-12.942 6.197,-5.96 0,0"
                   style="fill:#6b7280;fill-opacity:1;fill-rule:nonzero;stroke:none"
                   id="path150" /></g></g></g></g></g></g><g
       id="g158"><g
         id="g160"><g
           id="g166"><g
             id="g168"><path
               d="m 207.895,345.271 c -48.78,-1.57 -94.68,-30.211 -113.579,-74.89 v 0 c -31.741,-74.97 20.299,-159.441 103.62,-168 v 0 l -1.49,7.83 c -53.99,19.71 -110.32,121.67 -69.171,165.43 v 0 c 32.31,34.44 118.7,24.86 160.5,16.48 v 0 l 13.5,16.3 c -23.735,23.668 -55.085,36.925 -88.973,36.924 v 0 c -1.463,0 -2.935,-0.025 -4.407,-0.074"
               style="fill:url(#radialGradient178);stroke:none"
               id="path180" /></g></g></g></g><g
       id="g182"><g
         id="g184"
         clip-path="url(#clipPath188)"><g
           id="g190"
           transform="translate(151.4855,233.4411)"><path
             d="m 0,0 c -2.12,4.1 -2.21,8.58 -0.93,12.9 7.91,25.98 46.64,26.72 68.89,26.07 41.34,-1.11 90.3,-12.9 107.34,-29.57 6.71,-6.44 10.15,-14 9.96,-22.38 -1.21,-46.79 -30.16,-88.52 -73.73,-107.76 -15.36,-6.73 -23.7,-8.65 -35.8,-4.06 -21.24,8.06 -46.84,32.02 -50.36,54.81 -4.72,30.53 29.7,27.66 64.09,23.1 3.838,-0.509 7.644,-1.248 11.493,-1.681 1.922,-0.216 3.855,-0.355 5.791,-0.344 1.547,0.01 3.139,0.05 4.677,0.344 1.612,0.309 3.086,1.017 4.497,1.832 1.072,0.619 2.088,1.33 3.036,2.125 1.823,1.531 3.382,3.372 4.579,5.43 1.159,1.994 1.975,4.188 2.375,6.461 0.397,2.26 0.378,4.591 -0.085,6.839 -0.484,2.35 -1.45,4.587 -2.804,6.566 -1.365,1.997 -3.106,3.717 -5.059,5.138 C 92.91,4.15 43.1,-22.83 15.92,-16.02 5.96,-13.6 4.28,-8.48 0.34,-0.66"
             style="fill:#2563eb;fill-opacity:1;fill-rule:nonzero;stroke:none"
             id="path192" /></g></g></g></g></svg>
